<svg xmlns="http://www.w3.org/2000/svg" width="24" height="24" viewBox="0 0 24 24" fill="none"><g id="email-black"><g id="email"><g id="&#xF0;&#x9F;&#xA6;&#x86; icon &quot;envelope closed&quot;"><path id="Vector" d="M3 4V18.8163H21.5203V4H3ZM11.5193 12.8589C11.7335 13.0182 11.9933 13.1042 12.2602 13.1042C12.5271 13.1042 12.7868 13.0182 13.001 12.8589L13.9064 12.1798L20.2856 16.9642V17.5816H4.23469V16.9642L10.6139 12.1798L11.5193 12.8589ZM12.2602 11.8711L4.23469 5.85203V5.23469H20.2856V5.85203L12.2602 11.8711ZM4.23469 7.39539L9.58502 11.4081L4.23469 15.4209V7.39539ZM20.2856 15.4209L14.9353 11.4081L20.2856 7.39539V15.4209Z" fill="url(#paint0_linear_2_3)"></path></g></g></g><defs><linearGradient id="paint0_linear_2_3" x1="12.2602" y1="4" x2="12.2602" y2="18.8163" gradientUnits="userSpaceOnUse"><stop stop-color="#2E473A"></stop><stop offset="1" stop-color="#2E473A" stop-opacity="0.8"></stop></linearGradient></defs></svg>
