<svg xmlns="http://www.w3.org/2000/svg" width="653" height="203" viewBox="0 0 653 203" fill="none"><path d="M71.36 49.36H71.42C71.42 55.63 75.02 55.63 81.82 55.63H101.57C108.6 55.63 111.97 55.63 111.97 49.36H112.03V71.14C112.03 85.43 105.41 94.49 91.7 94.49C80.08 94.49 71.37 87.17 71.37 71.49V49.36H71.36ZM91.69 81.25C105.11 81.25 111.9 80.15 111.9 69.87V67.61H78.56C73.04 67.61 71.48 67.78 71.48 71.5C71.48 78.12 76.88 81.26 91.69 81.26V81.25Z" fill="url(#paint0_linear_1_3)"></path><path d="M126.39 57.66L126.42 57.71C120.99 60.85 122.79 63.96 126.19 69.85L136.06 86.95C139.57 93.04 141.26 95.95 146.69 92.82L146.72 92.87L127.86 103.76C115.49 110.9 104.33 109.7 97.48 97.83C91.67 87.77 93.65 76.57 107.23 68.73L126.39 57.67V57.66ZM108.94 91.21C115.65 102.83 120 108.16 128.9 103.02L130.86 101.89L114.19 73.02C111.43 68.24 110.5 66.97 107.28 68.83C101.55 72.14 101.53 78.39 108.94 91.21Z" fill="url(#paint1_linear_1_3)"></path><path d="M146.72 109.48L146.69 109.53C141.26 106.39 139.46 109.51 136.06 115.4L126.19 132.5C122.68 138.59 120.99 141.5 126.42 144.64L126.39 144.69L107.53 133.8C95.1601 126.66 90.6201 116.39 97.4701 104.52C103.28 94.46 113.97 90.57 127.55 98.42L146.71 109.48H146.72ZM108.94 111.14C102.23 122.76 99.7901 129.2 108.69 134.34L110.65 135.47L127.32 106.6C130.08 101.82 130.71 100.38 127.49 98.52C121.76 95.21 116.34 98.32 108.93 111.14H108.94Z" fill="url(#paint2_linear_1_3)"></path><path d="M112.01 152.99H111.95C111.95 146.72 108.35 146.72 101.55 146.72H81.8C74.77 146.72 71.4 146.72 71.4 152.99H71.34V131.21C71.34 116.92 77.96 107.86 91.67 107.86C103.29 107.86 112 115.18 112 130.86V152.99H112.01ZM91.68 121.1C78.26 121.1 71.47 122.2 71.47 132.48V134.74H104.81C110.33 134.74 111.89 134.57 111.89 130.85C111.89 124.23 106.49 121.09 91.68 121.09V121.1Z" fill="url(#paint3_linear_1_3)"></path><path d="M56.98 144.68L56.95 144.63C62.38 141.49 60.58 138.38 57.18 132.49L47.31 115.39C43.8 109.3 42.11 106.39 36.68 109.52L36.65 109.47L55.51 98.58C67.88 91.44 79.04 92.64 85.89 104.51C91.7 114.57 89.72 125.77 76.14 133.61L56.98 144.67V144.68ZM74.43 111.13C67.72 99.51 63.37 94.18 54.47 99.32L52.51 100.45L69.18 129.32C71.94 134.1 72.87 135.37 76.09 133.51C81.82 130.2 81.84 123.95 74.43 111.13Z" fill="url(#paint4_linear_1_3)"></path><path d="M36.65 92.87L36.68 92.82C42.11 95.96 43.91 92.84 47.31 86.95L57.18 69.85C60.69 63.76 62.38 60.85 56.95 57.71L56.98 57.66L75.84 68.55C88.21 75.69 92.75 85.96 85.9 97.83C80.09 107.89 69.4 111.78 55.82 103.93L36.66 92.87H36.65ZM74.43 91.21C81.14 79.59 83.58 73.15 74.68 68.01L72.72 66.88L56.05 95.75C53.29 100.53 52.66 101.97 55.88 103.83C61.61 107.14 67.03 104.03 74.44 91.21H74.43Z" fill="url(#paint5_linear_1_3)"></path><path d="M231.2 115.26C236.56 126.41 239.11 131.43 245.92 131.43V131.52H208.82V131.43C218.61 131.43 216.99 124.37 212.82 115.43L210.86 111.25C203.67 109.39 197.02 107.89 191.49 107.22L189.92 110.41C185.41 119.52 184.56 131.43 195.71 131.43V131.52H170.01V131.43C177.92 131.43 184.22 121.56 189.84 110.16L191.29 107.21C189.32 106.97 187.49 106.85 185.84 106.85C179.88 106.85 176.23 108.55 176.23 112.72C176.23 115.27 178.19 117.14 180.23 118C179.98 123.36 175.89 125.83 171.63 125.83C167.37 125.83 163.21 122.68 163.21 117.58C163.21 109.41 172.06 106.26 181.34 106.26C184.51 106.26 187.87 106.53 191.41 107.01L209.51 70.27L231.21 115.28L231.2 115.26ZM191.6 107.02C197.56 107.84 204.01 109.27 210.77 111.06L200.46 89.02L191.6 107.02Z" fill="white"></path><path d="M262.4 101.73C262.4 82.33 276.95 71.27 294.82 71.27C312.69 71.27 327.24 82.33 327.24 101.73C327.24 121.13 312.69 132.19 294.82 132.19C276.95 132.19 262.4 121.13 262.4 101.73ZM307.84 101.73C307.84 88.45 306.99 71.44 294.82 71.44C282.65 71.44 281.8 88.46 281.8 101.73C281.8 115 282.65 132.02 294.82 132.02C306.99 132.02 307.84 115 307.84 101.73Z" fill="white"></path><path d="M432.93 141.3C428.5 149.81 420.42 155.09 409.02 155.09C375.15 155.09 370.39 101.31 358.48 101.31H355.93V116.2C355.93 126.16 355.93 131.43 365.97 131.43V131.52H329.21V131.43C338.4 131.43 338.4 126.15 338.4 116.2V87.27C338.4 76.97 338.4 72.04 329.21 72.04V71.95H360.61C369.38 71.95 389.2 72.29 389.2 86.59C389.2 98.25 371.84 100.89 361.72 101.31V101.4C379.34 100.12 384.86 107.1 392.35 121.4C399.16 134.42 405.46 144.89 421.37 144.89C426.73 144.89 431.24 143.7 432.77 141.23L432.94 141.32L432.93 141.3ZM355.92 101.14H358.47C366.81 101.14 370.47 96.63 370.47 86.59C370.47 78.68 367.66 72.12 358.39 72.12H355.92V101.14Z" fill="white"></path><path d="M402.03 131.51V131.42C411.22 131.42 411.22 126.14 411.22 116.19V87.26C411.22 76.96 411.22 72.03 402.03 72.03V71.94H433.94C454.87 71.94 468.15 81.64 468.15 101.72C468.15 118.74 457.43 131.5 434.45 131.5H402.03V131.51ZM448.75 101.73C448.75 82.07 447.14 72.12 432.07 72.12H428.75V120.96C428.75 129.04 429 131.34 434.45 131.34C444.15 131.34 448.75 123.43 448.75 101.73Z" fill="white"></path><path d="M469.68 131.51V131.42C478.87 131.42 478.87 126.14 478.87 116.19V87.26C478.87 76.96 478.87 72.03 469.68 72.03V71.94H525.5L527.63 92.45H527.55C526.1 79.18 517 72.11 504.91 72.11H496.4V101.04C506.7 101.04 513.42 97.38 514.02 87.43H514.1L512.66 114.91H512.57C513 105.12 506.7 101.21 496.4 101.21V120.36C496.4 128.96 497 131.34 503.21 131.34C519.72 131.34 528.65 118.49 530.7 105.98H530.78L526.69 131.51H469.68Z" fill="white"></path><path d="M619.87 72.03C610.68 72.03 610.68 76.96 610.68 87.26V116.19C610.68 126.15 610.68 131.42 619.87 131.42V131.51H584.81V131.42C593.15 131.42 593.15 126.14 593.15 116.19V72.48L570.43 133.21L544.99 74.18V106.15C544.99 119.51 546.01 131.42 558.95 131.42V131.51H530.95V131.42C544.14 131.42 544.82 119.51 544.82 106.15V86.41C544.82 78.92 544.48 72.03 530.95 72.03V71.94H563.28L579.27 109L593.15 71.94H619.87V72.03Z" fill="white"></path><defs><linearGradient id="paint0_linear_1_3" x1="91.08" y1="95.5" x2="91.8" y2="53.6" gradientUnits="userSpaceOnUse"><stop stop-color="#B72020"></stop><stop offset="1" stop-color="#8E1A1A"></stop></linearGradient><linearGradient id="paint1_linear_1_3" x1="131.79" y1="78.05" x2="95.82" y2="98.56" gradientUnits="userSpaceOnUse"><stop stop-color="#B72020"></stop><stop offset="1" stop-color="#8E1A1A"></stop></linearGradient><linearGradient id="paint2_linear_1_3" x1="95.2101" y1="104.64" x2="134.78" y2="125.69" gradientUnits="userSpaceOnUse"><stop stop-color="#B72020"></stop><stop offset="1" stop-color="#8E1A1A"></stop></linearGradient><linearGradient id="paint3_linear_1_3" x1="91.61" y1="151.65" x2="91.97" y2="107.4" gradientUnits="userSpaceOnUse"><stop stop-color="#B72020"></stop><stop offset="1" stop-color="#8E1A1A"></stop></linearGradient><linearGradient id="paint4_linear_1_3" x1="88.97" y1="104.33" x2="47.42" y2="126.28" gradientUnits="userSpaceOnUse"><stop stop-color="#B72020"></stop><stop offset="1" stop-color="#8E1A1A"></stop></linearGradient><linearGradient id="paint5_linear_1_3" x1="50.67" y1="77.71" x2="85.92" y2="96.77" gradientUnits="userSpaceOnUse"><stop stop-color="#B72020"></stop><stop offset="1" stop-color="#8E1A1A"></stop></linearGradient></defs></svg>