<svg xmlns="http://www.w3.org/2000/svg" width="24" height="24" viewBox="0 0 24 24" fill="none"><g id="nome-black"><g id="&#xF0;&#x9F;&#xA6;&#x86; icon &quot;user&quot;"><path id="Vector" d="M19.0056 14.8551L15.7102 12.9981L16.9526 11.0233C17.2423 10.5621 17.3942 10.0454 17.3947 9.52034V6.39417C17.3947 5.22876 16.8607 4.11109 15.9102 3.28702C14.9597 2.46296 13.6706 2 12.3264 2C10.9822 2 9.6931 2.46296 8.74262 3.28702C7.79214 4.11109 7.25817 5.22876 7.25817 6.39417V9.52034C7.25862 10.0455 7.41057 10.5621 7.70019 11.0233L8.94259 12.9981L5.64719 14.8551C5.14073 15.1394 4.72457 15.5292 4.43681 15.989C4.14905 16.4487 3.99887 16.9637 4.00001 17.4868V20.8322H20.6528V17.4868C20.654 16.9637 20.5038 16.4487 20.216 15.989C19.9282 15.5292 19.5121 15.1394 19.0056 14.8551ZM19.2048 19.5767H5.44808V17.4868C5.4474 17.1729 5.53752 16.8639 5.71018 16.5881C5.88285 16.3122 6.13255 16.0783 6.43643 15.9078L10.8558 13.4173L8.97146 10.4221C8.79769 10.1454 8.70652 9.83541 8.70624 9.52034V6.39417C8.70624 5.56174 9.08765 4.7634 9.76656 4.17478C10.4455 3.58616 11.3663 3.25548 12.3264 3.25548C13.2865 3.25548 14.2074 3.58616 14.8863 4.17478C15.5652 4.7634 15.9466 5.56174 15.9466 6.39417V9.52034C15.9463 9.83541 15.8551 10.1454 15.6814 10.4221L13.7971 13.4173L18.2165 15.9078C18.5204 16.0783 18.7701 16.3123 18.9427 16.5881C19.1153 16.864 19.2054 17.1729 19.2048 17.4868V19.5767Z" fill="url(#paint0_linear_2_2)"></path></g></g><defs><linearGradient id="paint0_linear_2_2" x1="12.3264" y1="2" x2="12.3264" y2="20.8322" gradientUnits="userSpaceOnUse"><stop stop-color="#2E473A"></stop><stop offset="0.932292" stop-color="#2E473A" stop-opacity="0.8"></stop></linearGradient></defs></svg>
