<svg xmlns="http://www.w3.org/2000/svg" width="24" height="24" viewBox="0 0 24 24" fill="none"><path d="M16.5013 13.0989C16.2692 12.9814 15.1389 12.4298 14.9277 12.3511C14.7164 12.2759 14.563 12.2365 14.4091 12.4686C14.2586 12.6949 13.8153 13.2129 13.6799 13.364C13.5444 13.515 13.4113 13.5266 13.1827 13.4241C12.9506 13.3067 12.2092 13.0653 11.3289 12.2759C10.6414 11.6641 10.1836 10.9106 10.0476 10.6785C9.91213 10.4493 10.0325 10.3197 10.1471 10.2051C10.2524 10.0997 10.3792 9.94001 10.4967 9.80111C10.6084 9.66221 10.6443 9.56903 10.7259 9.41855C10.8011 9.25592 10.7623 9.12917 10.705 9.01457C10.6477 8.89998 10.1865 7.76387 9.99374 7.31128C9.80969 6.86216 9.61696 6.91946 9.47517 6.91946C9.34263 6.90731 9.18868 6.90731 9.03531 6.90731C8.88194 6.90731 8.63134 6.9646 8.42009 7.18453C8.20884 7.41662 7.61214 7.97107 7.61214 9.09271C7.61214 10.2172 8.43803 11.3053 8.55262 11.4679C8.67011 11.6184 10.1772 13.9335 12.4894 14.9283C13.0409 15.1604 13.4692 15.2993 13.8037 15.4139C14.3553 15.5887 14.8588 15.5644 15.2564 15.5071C15.6963 15.4348 16.6188 14.9492 16.8121 14.4069C17.0083 13.8611 17.0083 13.4091 16.951 13.3067C16.8937 13.2013 16.7432 13.144 16.5112 13.0416L16.5013 13.0989ZM12.3082 18.784H12.296C10.9273 18.784 9.57414 18.4131 8.39231 17.7197L8.11508 17.5542L5.22128 18.3077L5.99914 15.4921L5.8122 15.2027C5.04939 13.9879 4.64252 12.5861 4.64252 11.1456C4.64252 6.94377 8.08209 3.51635 12.314 3.51635C14.364 3.51635 16.2872 4.31504 17.7341 5.76194C19.181 7.19669 19.9797 9.11991 19.9797 11.1577C19.9739 15.3566 16.5372 18.784 12.3111 18.784H12.3082ZM18.8343 4.66172C17.0737 2.96132 14.7587 2 12.296 2C7.21685 2 3.08103 6.11788 3.07813 11.1786C3.07813 12.7945 3.50005 14.371 4.308 15.7664L3 20.5203L7.88937 19.2453C9.23672 19.9717 10.7531 20.3606 12.2966 20.3635H12.2995C17.3816 20.3635 21.5174 16.2456 21.5203 11.1815C21.5203 8.73098 20.5648 6.42462 18.8227 4.69123L18.8343 4.66172Z" fill="url(#paint0_linear_2_4)"></path><defs><linearGradient id="paint0_linear_2_4" x1="12.2602" y1="2" x2="12.2602" y2="20.5203" gradientUnits="userSpaceOnUse"><stop stop-color="#2E473A"></stop><stop offset="1" stop-color="#2E473A" stop-opacity="0.8"></stop></linearGradient></defs></svg>
